<?xml version="1.0" encoding="UTF-8" standalone="no"?>
<svg shape-rendering="crispEdges" viewBox="0 0 280 280" version="1.1" xmlns="http://www.w3.org/2000/svg" xmlns:svg="http://www.w3.org/2000/svg">
  <rect class="bg" fill="#161616" x="0" y="0" width="280" height="280"/>
  <path class="y" stroke="#fff" d="m 132.5,126.5 h 2 m 2,0 h 1 m -8,1 h 1 m 3,0 h 1 m 3,0 h 1 m 7,0 h 1 m 3,0 h 2 m -25,1 h 2 m 1,0 h 1 m 3,0 h 1 m 14,0 h 2 m -23,1 h 1 m 2,0 h 1 m 3,0 h 1 m 1,0 h 4 m 1,0 h 4 m 2,0 h 2 m -21,1 h 1 m 3,0 h 2 m 17,0 h 1 m -26,1 h 1 m 4,0 h 1 m 14,0 h 1 m 3,0 h 2 m -22,1 h 1 m 1,0 h 5 m 5,0 h 1 m 1,0 h 1 m 2,0 h 1 m 2,0 h 1 m -24,1 h 1 m 1,0 h 1 m 1,0 h 1 m 2,0 h 1 m 1,0 h 1 m 3,0 h 1 m 1,0 h 1 m 2,0 h 1 m 1,0 h 1 m -19,1 h 1 m 1,0 h 1 m 2,0 h 1 m 2,0 h 1 m 2,0 h 1 m 1,0 h 1 m 2,0 h 1 m 2,0 h 1 m 2,0 h 2 m -24,1 h 1 m 2,0 h 5 m 4,0 h 4 m 3,0 h 1 m 1,0 h 2 m -23,1 h 1 m 18,0 h 1 m -23,1 h 1 m 1,0 h 1 m 3,0 h 1 m 3,0 h 1 m 5,0 h 1 m 4,0 h 1 m -19,1 h 4 m 2,0 h 2 m 5,0 h 1 m 3,0 h 1 m 2,0 h 1 m -23,1 h 3 m 3,0 h 3 m 1,0 h 1 m 2,0 h 1 m 1,0 h 1 m 2,0 h 1 m 2,0 h 2 m -23,1 h 2 m 1,0 h 1 m 2,0 h 2 m 2,0 h 1 m 1,0 h 1 m 3,0 h 3 m 2,0 h 1 m -17,1 h 8 m 1,0 h 2 m 1,0 h 1 m 1,0 h 1 m -9,1 h 1 m -10,1 h 2 m 1,0 h 2 m 8,0 h 5 m -16,1 h 1 m 1,0 h 2 m 6,0 h 4 m -7,1 h 2 m -7,1 h 1 m 2,0 h 2 m 5,0 h 1 m 1,0 h 2 m -16,1 h 4 m 1,0 h 2 m 1,0 h 3 m 2,0 h 1 m -7,1 h 2 m 1,0 h 2 m -6,1 h 1 m 1,0 h 1 m 2,0 h 1 m -6,1 h 1 m 2,0 h 3 m -7,1 h 1 m 3,0 h 1 m -6,1 h 1 m 3,0 h 2 m -6,1 h 1 m 1,0 h 1 m 1,0 h 1 m 0,-27 h 1 m 2,0 h 1 m -2,1 h 1 m -2,5 h 1 m -17,5 h 1 m 0,1 h 1 m 16,1 h 1 m -13,2 h 1 m 8,0 h 1 m -10,2 h 1 m 0,1 h 1 m 11,2 h 1 m 1,-20 h 1 m -11,1 h 1 m -2,2 h 1 m 4,0 h 1 m -15,3 h 1 m 10,1 h 1 m -1,12 h 1 m -1,3 h 1 m -2,5 h 1 m 1,0 h 1 m 1,-26 h 1 m -11,1 h 1 m 14,2 h 1 m -10,4 h 1 m -9,2 h 1 m 2,1 h 1 m 9,1 h 1 m -10,1 h 1 m 14,1 h 1 m -15,8 h 1 m 6,1 h 1 m -5,1 h 1 m 6,-18 h 1 m -9,19 h 1"/>
  <path class="x" stroke="#fff" d="m 135.5,123.5 h 1 m 7,0 h 1 m 4,0 h 1 m -18,1 h 2 m 3,0 h 1 m 2,0 h 1 m 3,0 h 1 m -16,1 h 1 m 3,0 h 1 m 3,0 h 1 m 3,0 h 1 m 7,0 h 1 m -20,1 h 1 m 17,0 h 1 m -15,1 h 9 m 2,0 h 1 m 7,0 h 1 m -27,1 h 2 m 2,0 h 3 m 2,0 h 1 m 6,0 h 1 m 2,0 h 2 m 3,0 h 2 m -25,1 h 1 m 1,0 h 2 m 3,0 h 1 m 1,0 h 2 m 3,0 h 4 m 2,0 h 2 m -20,1 h 1 m 2,0 h 2 m 1,0 h 1 m 1,0 h 1 m 3,0 h 1 m 1,0 h 1 m 1,0 h 1 m 2,0 h 1 m -21,1 h 1 m 3,0 h 2 m 1,0 h 1 m 1,0 h 1 m 3,0 h 1 m 1,0 h 1 m 1,0 h 1 m 2,0 h 1 m -21,1 h 1 m 4,0 h 4 m 4,0 h 1 m 1,0 h 1 m 1,0 h 1 m 2,0 h 1 m -23,1 h 1 m 1,0 h 1 m 5,0 h 3 m 4,0 h 4 m 3,0 h 1 m -23,1 h 1 m 1,0 h 1 m 3,0 h 1 m -7,1 h 1 m 1,0 h 2 m 2,0 h 1 m 4,0 h 1 m 3,0 h 1 m 4,0 h 2 m 2,0 h 2 m -26,1 h 1 m 2,0 h 3 m 1,0 h 1 m 3,0 h 1 m 4,0 h 1 m 2,0 h 2 m 2,0 h 2 m -24,1 h 1 m 2,0 h 2 m 1,0 h 4 m 1,0 h 1 m 1,0 h 1 m 2,0 h 4 m -19,1 h 2 m 4,0 h 1 m 1,0 h 7 m 2,0 h 1 m -19,1 h 2 m 5,0 h 1 m 4,0 h 1 m 3,0 h 3 m -15,2 h 3 m 7,0 h 4 m -12,1 h 3 m 4,0 h 4 m -16,1 h 1 m 9,0 h 1 m -10,1 h 1 m 1,0 h 2 m 4,0 h 2 m 4,0 h 1 m 2,0 h 1 m -18,1 h 3 m 5,0 h 2 m 1,0 h 1 m 2,0 h 1 m 1,0 h 2 m -8,1 h 3 m -7,1 h 6 m -7,1 h 2 m 4,0 h 1 m -7,1 h 1 m 4,0 h 2 m -6,1 h 5 m -4,-27 h 1 m 3,1 h 1 m 7,0 h 1 m -6,1 h 1 m -1,2 h 1 m 7,0 h 1 m -19,1 h 1 m 2,0 h 1 m -2,1 h 1 m -5,6 h 1 m 16,1 h 1 m -1,1 h 2 m -15,2 h 1 m -4,3 h 1 m 6,-19 h 1 m 7,2 h 1 m -20,5 h 1 m 8,2 h 1 m -9,5 h 1 m 5,1 h 1 m -2,3 h 1 m 4,4 h 1 m 4,0 h 1 m -7,1 h 1 m 3,-19 h 1 m -10,2 h 1 m 10,1 h 1 m 3,4 h 1 m -8,2 h 1 m 5,0 h 1 m -16,1 h 1 m 9,0 h 1 m -5,2 h 1 m -10,4 h 1 m -3,-5 h 1"/>
  <style>
    @keyframes cf{0%{stroke: #303030;}10%{stroke: #0974f8;}20%{stroke: #fe81dd;}30%{stroke: #ff9000;}40%{stroke: #006e15;}50%{stroke: #fe81dd;}60%{stroke: #fbd81c;}70%{stroke: #608a1a;}80%{stroke: #202020;}90%{stroke: #e4e6f2;}}       .bg{animation:bg .05s .025s steps(1) infinite;} @keyframes bg{0%{fill: #161616;}50%{fill: #171717;}}   .x{animation: fr .3s steps(1) infinite,m2 .7s steps(2) infinite, cf 1s steps(1) infinite alternate;}   .y{animation: fr .3s .15s steps(1) infinite,m2 1s steps(3) infinite,cf 1s steps(1) infinite alternate;}   @keyframes m2{0%{transform: translate(0%, 0%)}50%{transform: translate(0%, -3%)}}   @keyframes fr {0%{opacity: 0;}50%{opacity: 1.0;}};}
  </style>
</svg>
